if (_typeface_js && _typeface_js.loadFace) _typeface_js.loadFace({"glyphs":{"0":{"ha":1364,"x_min":0,"x_max":1236,"o":"m 1094 203 l 1094 464 q 1079 504 1094 492 q 1044 522 1064 517 l 182 522 q 144 464 144 521 l 144 203 q 182 161 161 161 l 596 161 l 1057 161 q 1094 203 1075 164 m 1115 1 l 99 1 q 0 165 0 1 l 0 533 q 99 675 0 675 l 1131 675 q 1236 533 1236 675 l 1236 165 q 1131 1 1236 1 l 1115 1 z "},"1":{"ha":269,"x_min":-1,"x_max":139,"o":"m 139 419 l 139 1 l -1 1 l -1 671 l 139 672 l 139 419 z "},"2":{"ha":1364,"x_min":0,"x_max":1236,"o":"m 1236 407 q 1128 256 1236 256 l 171 256 l 131 254 l 131 160 l 1236 160 l 1236 1 l 99 1 l 0 1 l 0 142 l 0 256 l 0 404 l 97 404 l 1056 404 q 1094 464 1094 407 q 1078 488 1089 474 q 1053 510 1068 501 l 0 510 l 0 675 l 1128 675 q 1236 511 1236 675 l 1236 407 z "},"3":{"ha":1364,"x_min":0,"x_max":1238,"o":"m 0 161 l 1053 161 q 1083 231 1078 192 q 1042 272 1061 272 l 139 272 l 139 350 l 139 417 l 1061 417 q 1079 433 1069 421 q 1090 476 1089 444 q 1056 519 1069 513 l 139 519 l 0 519 l 1 672 l 1131 672 q 1238 532 1238 672 l 1238 421 q 1197 315 1238 344 q 1238 203 1238 257 l 1236 125 q 1136 3 1238 1 l 1090 1 l 619 1 l 1 1 l 0 161 z "},"4":{"ha":1364,"x_min":-1,"x_max":1239,"o":"m 1239 1 l 1106 1 l 1106 272 l 0 272 l -1 671 l 139 672 l 139 419 l 1106 419 l 1106 671 l 1239 671 l 1239 1 z "},"5":{"ha":1364,"x_min":0,"x_max":1236,"o":"m 1236 165 q 1128 1 1236 1 l 0 1 l 0 167 l 1053 167 q 1078 189 1068 175 q 1094 213 1089 203 q 1056 272 1094 269 l 97 272 l 0 272 l 0 421 l 0 535 l 0 675 l 99 675 l 1236 675 l 1236 517 l 131 517 l 131 422 l 1128 421 q 1236 269 1236 421 l 1236 165 z "},"6":{"ha":1364,"x_min":0,"x_max":1236,"o":"m 144 275 l 144 203 q 182 161 161 161 l 596 161 l 1057 161 l 1094 203 l 1094 239 l 1061 275 l 619 275 l 144 275 m 144 417 l 1122 417 q 1236 292 1236 417 l 1236 165 q 1131 1 1236 1 l 874 1 l 619 1 l 363 1 l 99 1 q 0 165 0 1 l 0 533 q 99 675 0 675 l 1131 675 l 1236 675 l 1236 522 l 182 522 q 144 464 144 521 l 144 417 z "},"7":{"ha":1364,"x_min":0,"x_max":1236,"o":"m 0 672 l 1129 672 q 1236 510 1236 672 l 1236 143 l 1236 3 l 1092 1 l 1092 218 l 1092 460 l 1072 504 l 0 504 l 0 672 z "},"8":{"ha":1364,"x_min":0,"x_max":1238,"o":"m 575 161 l 1053 161 q 1083 231 1078 192 q 1042 272 1061 272 l 289 272 l 167 272 q 149 217 150 256 q 164 161 147 178 l 225 161 l 575 161 m 258 519 l 150 519 q 136 464 136 489 q 150 417 136 439 l 531 417 l 1061 417 q 1079 433 1069 421 q 1090 476 1089 444 q 1056 519 1069 513 l 378 519 l 258 519 m 149 1 q 1 101 1 1 l 1 203 q 53 319 1 257 q 1 421 3 353 l 1 532 q 108 672 0 672 l 247 672 l 1131 672 q 1238 532 1238 672 l 1238 421 q 1197 315 1238 344 q 1238 203 1238 257 l 1236 125 q 1136 3 1238 1 l 1099 1 l 149 1 z "},"9":{"ha":1364,"x_min":0,"x_max":1236,"o":"m 1092 401 l 1092 474 q 1054 515 1075 515 l 640 515 l 179 515 q 139 460 139 497 q 175 401 139 422 l 617 401 l 1092 401 m 1092 260 l 114 260 q 0 385 0 260 l 0 511 q 106 675 0 675 l 363 675 l 483 674 l 617 675 l 874 675 l 1138 675 q 1236 511 1236 675 l 1236 143 q 1138 1 1236 1 l 106 1 l 0 1 l 0 154 l 1054 156 q 1092 213 1092 156 l 1092 260 z "}," ":{"ha":725,"x_min":0,"x_max":0,"o":""},"!":{"ha":264,"x_min":0,"x_max":142,"o":"m 0 269 l 0 675 l 142 675 l 142 213 l 0 214 l 0 269 m 139 44 q 100 3 139 3 l 36 3 q 0 39 1 1 l 1 121 q 39 161 0 161 l 104 161 q 139 119 139 161 l 139 43 l 139 44 z "},"\"":{"ha":486,"x_min":0,"x_max":358,"o":"m 358 558 l 358 517 l 325 375 l 289 375 l 289 517 l 256 517 q 219 553 221 515 l 221 635 q 258 675 219 675 l 324 675 q 358 633 358 675 l 358 557 l 358 558 m 139 558 l 139 517 l 106 375 l 69 375 l 69 517 l 36 517 q 0 553 1 515 l 1 635 q 39 675 0 675 l 104 675 q 139 633 139 675 l 139 557 l 139 558 z "},"#":{"ha":986,"x_min":524,"x_max":654,"o":"m 524 358 l 524 490 l 654 490 l 654 358 l 524 358 z "},"$":{"ha":1364,"x_min":0,"x_max":1236,"o":"m 544 421 l 544 517 l 438 517 l 171 517 q 149 502 158 517 q 139 465 139 488 q 149 431 139 442 q 171 421 158 421 l 410 421 l 544 421 m 686 167 l 789 167 l 1053 167 q 1078 189 1068 175 q 1094 213 1089 203 q 1056 272 1094 269 l 686 272 l 686 167 m 686 -74 l 544 -74 l 544 1 l 0 1 l 0 167 l 319 167 l 544 167 l 544 272 l 338 272 l 97 272 q 0 421 0 275 l 0 535 q 99 675 0 675 l 544 675 l 544 750 l 686 750 l 686 675 l 951 675 l 1236 675 l 1236 517 l 686 517 l 686 421 l 888 421 l 1128 421 q 1236 269 1236 421 l 1236 165 q 1128 1 1236 1 l 686 1 l 686 -74 z "},"%":{"ha":1125,"x_min":0,"x_max":0,"o":""},"&":{"ha":1364,"x_min":0,"x_max":1236,"o":"m 544 421 l 544 517 l 438 517 l 171 517 q 149 502 158 517 q 139 465 139 488 q 149 431 139 442 q 171 421 158 421 l 410 421 l 544 421 m 686 167 l 789 167 l 1053 167 l 1236 165 l 1236 1 l 1128 1 l 686 1 l 686 -74 l 544 -74 l 544 1 l 118 1 q 0 114 0 1 l 0 421 l 0 535 q 99 675 0 675 l 544 675 l 544 750 l 686 750 l 686 675 l 951 675 l 1236 675 l 1236 517 l 686 517 l 686 421 l 888 421 l 1128 421 l 1236 421 l 1236 272 l 686 272 l 686 167 m 172 167 l 172 167 l 544 167 l 544 272 l 172 272 q 128 222 131 256 q 172 167 125 189 z "},"'":{"ha":269,"x_min":0,"x_max":139,"o":"m 139 558 l 139 517 l 106 375 l 69 375 l 69 517 l 36 517 q 0 553 1 515 l 1 635 q 39 675 0 675 l 104 675 q 139 633 139 675 l 139 557 l 139 558 z "},"(":{"ha":539,"x_min":0,"x_max":388,"o":"m 388 808 l 388 606 q 285 570 328 606 q 243 485 243 535 l 243 322 q 285 237 243 272 q 388 201 328 201 l 388 0 l 243 0 q 71 59 142 0 q 0 201 0 118 l 0 607 q 71 749 0 690 q 243 808 142 808 l 388 808 z "},")":{"ha":539,"x_min":0,"x_max":388,"o":"m 144 808 q 317 749 246 808 q 388 607 388 690 l 388 201 q 317 59 388 118 q 144 0 246 0 l 0 0 l 0 201 q 102 237 60 201 q 144 322 144 272 l 144 485 q 102 570 144 535 q 0 606 60 606 l 0 808 l 144 808 z "},"*":{"ha":1106,"x_min":0,"x_max":0,"o":""},"+":{"ha":1367,"x_min":1,"x_max":1236,"o":"m 544 272 l 1 272 l 1 417 l 544 417 l 544 519 l 544 672 l 686 672 l 686 417 l 1236 417 l 1236 272 l 1236 272 l 686 272 l 686 1 l 546 1 l 544 272 z "},",":{"ha":269,"x_min":0,"x_max":139,"o":"m 139 44 l 139 3 l 106 -139 l 69 -139 l 69 3 l 36 3 q 0 39 1 1 l 1 121 q 39 161 0 161 l 104 161 q 139 119 139 161 l 139 43 l 139 44 z "},"-":{"ha":672,"x_min":1,"x_max":544,"o":"m 544 272 l 1 272 l 1 417 l 544 417 l 544 272 z "},".":{"ha":269,"x_min":0,"x_max":139,"o":"m 139 44 q 100 3 139 3 l 36 3 q 0 39 1 1 l 1 121 q 39 161 0 161 l 104 161 q 139 119 139 161 l 139 43 l 139 44 z "},"/":{"ha":842,"x_min":0,"x_max":711,"o":"m 531 675 l 711 675 l 197 3 l 0 3 l 531 675 z "},":":{"ha":269,"x_min":0,"x_max":139,"o":"m 139 342 q 100 300 139 300 l 36 300 q 0 336 1 299 l 1 418 q 39 458 0 458 l 104 458 q 139 417 139 458 l 139 340 l 139 342 m 139 44 q 100 3 139 3 l 36 3 q 0 39 1 1 l 1 121 q 39 161 0 161 l 104 161 q 139 119 139 161 l 139 43 l 139 44 z "},";":{"ha":269,"x_min":0,"x_max":139,"o":"m 139 342 q 100 300 139 300 l 36 300 q 0 336 1 299 l 1 418 q 39 458 0 458 l 104 458 q 139 417 139 458 l 139 340 l 139 342 m 139 44 l 139 3 l 106 -139 l 69 -139 l 69 3 l 36 3 q 0 39 1 1 l 1 121 q 39 161 0 161 l 104 161 q 139 119 139 161 l 139 43 l 139 44 z "},"<":{"ha":442,"x_min":0,"x_max":311,"o":"m 311 3 l 107 1 q 0 164 0 1 l 0 531 q 107 671 0 671 l 311 672 l 311 517 l 167 517 q 144 456 147 483 l 144 214 l 158 172 l 311 172 l 311 3 z "},"=":{"ha":722,"x_min":3,"x_max":599,"o":"m 3 519 l 599 519 l 599 417 l 3 417 l 3 519 m 3 158 l 3 269 l 597 269 l 597 158 l 3 158 z "},">":{"ha":442,"x_min":0,"x_max":311,"o":"m 0 172 l 153 172 l 167 214 l 167 456 q 144 517 164 483 l 0 517 l 0 672 l 204 671 q 311 531 311 671 l 311 164 q 204 1 311 1 l 0 3 l 0 172 z "},"?":{"ha":1364,"x_min":0,"x_max":1236,"o":"m 0 269 q 108 421 0 421 l 1065 421 q 1088 431 1078 421 q 1097 465 1097 442 q 1088 502 1097 488 q 1065 517 1078 517 l 0 517 l 0 675 l 1138 675 q 1236 535 1236 675 l 1236 421 q 1139 272 1236 275 l 181 272 q 142 213 142 269 l 0 214 l 0 269 m 139 44 q 100 3 139 3 l 36 3 q 0 39 1 1 l 1 121 q 39 161 0 161 l 104 161 q 139 119 139 161 l 139 43 l 139 44 z "},"@":{"ha":1364,"x_min":0,"x_max":1236,"o":"m 1094 203 l 1094 464 q 1079 504 1094 492 q 1044 522 1064 517 l 182 522 q 144 464 144 521 l 144 203 q 182 161 161 161 l 596 161 l 1057 161 q 1094 203 1075 164 m 750 1 l 619 1 l 363 1 l 99 1 q 0 165 0 1 l 0 533 q 99 675 0 675 l 1131 675 q 1236 533 1236 675 l 1236 165 q 1131 1 1236 1 l 874 1 l 750 1 m 875 196 l 813 196 l 813 279 l 813 313 l 542 314 l 403 313 l 403 197 l 344 196 l 344 428 q 401 483 344 483 l 825 483 q 875 425 875 483 l 875 376 l 875 283 l 875 196 m 403 369 l 811 369 l 813 400 q 799 417 803 417 l 418 417 q 403 401 413 417 l 403 369 z "},"A":{"ha":1364,"x_min":0,"x_max":1238,"o":"m 1238 1 l 1090 1 l 1090 192 l 1089 272 l 139 272 l 139 1 l 0 1 l 0 542 q 133 672 1 672 l 1119 672 q 1238 532 1238 672 l 1238 421 l 1238 203 l 1238 1 m 139 419 l 1089 419 l 1090 476 q 1058 513 1069 513 l 172 514 q 139 478 158 514 l 139 419 z "},"B":{"ha":1364,"x_min":1,"x_max":1238,"o":"m 139 417 l 1061 417 q 1079 433 1069 421 q 1090 476 1089 444 q 1056 519 1069 513 l 139 519 l 139 417 m 739 161 l 1053 161 q 1083 231 1078 192 q 1042 272 1061 272 l 139 272 l 139 161 l 739 161 m 1136 3 l 1118 1 l 619 1 l 1 1 l 1 672 l 1131 672 q 1238 532 1238 672 l 1238 421 q 1197 315 1238 344 q 1238 203 1238 257 l 1236 125 q 1136 3 1238 1 z "},"C":{"ha":1364,"x_min":0,"x_max":1236,"o":"m 1236 1 l 107 1 q 0 164 0 1 l 0 531 q 107 671 0 671 l 1236 671 l 1236 517 l 167 517 q 144 456 147 483 l 144 214 l 158 172 l 1236 172 l 1236 1 z "},"D":{"ha":1364,"x_min":0,"x_max":1236,"o":"m 142 169 l 1075 169 l 1092 214 l 1092 456 q 1069 519 1089 483 l 142 519 l 142 169 m 0 175 l 0 517 l 0 671 l 1129 671 q 1236 531 1236 671 l 1236 164 q 1129 1 1236 1 l 0 1 l 0 175 z "},"E":{"ha":1367,"x_min":1,"x_max":1236,"o":"m 1236 1 l 1 1 l 1 672 l 1236 672 l 1236 519 l 142 519 l 142 417 l 1236 417 l 1236 272 l 142 272 l 142 169 l 1236 169 l 1236 1 z "},"F":{"ha":1367,"x_min":1,"x_max":1236,"o":"m 142 1 l 1 1 l 1 672 l 1236 672 l 1236 519 l 142 519 l 142 417 l 1236 417 l 1236 272 l 142 272 l 142 1 z "},"G":{"ha":1364,"x_min":0,"x_max":1236,"o":"m 458 275 l 458 417 l 1236 417 l 1236 165 q 1131 1 1236 1 l 874 1 l 753 1 l 619 1 l 363 1 l 99 1 q 0 165 0 1 l 0 533 q 99 675 0 675 l 1131 675 l 1236 675 l 1236 522 l 182 522 q 144 464 144 521 l 144 333 l 144 203 q 182 161 161 161 l 596 161 l 1057 161 l 1094 203 l 1094 275 l 458 275 z "},"H":{"ha":1364,"x_min":-1,"x_max":1239,"o":"m 1239 1 l 1097 1 l 1097 272 l 139 272 l 139 1 l -1 1 l -1 671 l 139 672 l 139 417 l 1097 417 l 1097 672 l 1239 671 l 1239 1 z "},"I":{"ha":1367,"x_min":0,"x_max":1236,"o":"m 0 3 l 0 169 l 544 169 l 544 472 l 544 519 l 0 519 l 0 672 l 1236 672 l 1236 519 l 686 519 l 686 169 l 1236 169 l 1236 3 l 686 3 l 0 3 z "},"J":{"ha":1364,"x_min":0,"x_max":1236,"o":"m 0 169 l 1072 169 l 1092 214 l 1092 456 l 1092 672 l 1236 671 l 1236 531 l 1236 164 q 1129 1 1236 1 l 0 1 l 0 169 z "},"K":{"ha":1364,"x_min":0,"x_max":1238,"o":"m 1238 1 l 1090 1 l 986 272 l 653 272 l 393 272 l 139 272 l 139 1 l 0 1 l 0 675 l 139 675 l 139 419 l 989 419 l 1090 675 l 1238 675 l 1111 344 l 1238 1 z "},"L":{"ha":1367,"x_min":1,"x_max":1236,"o":"m 1236 1 l 1 1 l 1 672 l 142 672 l 143 418 l 142 167 l 1236 167 l 1236 1 z "},"M":{"ha":1364,"x_min":0,"x_max":1236,"o":"m 686 1 l 546 1 l 544 519 l 181 519 q 144 474 161 515 l 144 1 l 0 1 l 0 143 l 0 511 q 99 675 0 675 l 363 675 l 619 675 l 753 674 l 874 675 l 1131 675 q 1236 511 1236 675 l 1236 143 l 1236 1 l 1094 1 l 1094 213 l 1094 474 q 1056 519 1072 514 l 686 519 l 686 1 z "},"N":{"ha":1364,"x_min":0,"x_max":1236,"o":"m 1094 475 q 1056 519 1072 514 l 181 519 q 144 474 161 515 l 144 1 l 0 1 l 0 143 l 0 511 q 99 675 0 675 l 363 675 l 619 675 l 753 674 l 874 675 l 1131 675 q 1236 511 1236 675 l 1236 143 l 1236 1 l 1094 1 l 1094 213 l 1094 475 l 1094 475 z "},"O":{"ha":1364,"x_min":0,"x_max":1236,"o":"m 1094 203 l 1094 464 q 1079 504 1094 492 q 1044 522 1064 517 l 182 522 q 144 464 144 521 l 144 203 q 182 161 161 161 l 596 161 l 1057 161 q 1094 203 1075 164 m 750 1 l 619 1 l 363 1 l 110 1 q 0 165 0 1 l 0 533 q 111 675 0 675 l 1131 675 q 1236 533 1236 675 l 1236 165 q 1131 1 1236 1 l 874 1 l 750 1 z "},"P":{"ha":1367,"x_min":0,"x_max":1238,"o":"m 1064 519 l 1064 519 l 139 519 l 139 417 l 1067 417 q 1097 465 1097 436 q 1064 519 1097 494 m 653 272 l 393 272 l 139 272 l 139 1 l 0 1 l 0 675 l 1142 675 q 1238 538 1238 675 l 1238 425 q 1142 272 1238 272 l 890 272 l 653 272 z "},"Q":{"ha":1364,"x_min":0,"x_max":1236,"o":"m 1094 203 l 1094 464 q 1079 504 1094 492 q 1044 522 1064 517 l 185 522 q 144 464 144 521 l 144 203 q 182 161 161 161 l 544 161 l 544 328 l 686 328 l 686 161 l 1057 161 l 1094 203 m 750 1 l 619 1 l 363 1 l 99 1 q 0 165 0 1 l 0 533 q 99 675 0 675 l 1131 675 q 1236 533 1236 675 l 1236 165 q 1131 1 1236 1 l 874 1 l 750 1 z "},"R":{"ha":1364,"x_min":0,"x_max":1238,"o":"m 1238 1 l 1090 1 l 981 272 l 653 272 l 393 272 l 139 272 l 139 1 l 0 1 l 0 675 l 1142 675 q 1238 538 1238 675 l 1238 425 q 1142 272 1238 272 l 1131 272 l 1238 1 m 1067 519 l 1064 519 l 139 519 l 139 419 l 1064 419 q 1099 467 1097 436 q 1067 519 1100 497 z "},"S":{"ha":1364,"x_min":0,"x_max":1236,"o":"m 1236 165 q 1128 1 1236 1 l 0 1 l 0 167 l 1053 167 q 1078 189 1068 175 q 1094 213 1089 203 q 1056 272 1094 269 l 97 272 q 0 421 0 275 l 0 535 q 99 675 0 675 l 1236 675 l 1236 517 l 171 517 q 149 502 158 517 q 139 465 139 488 q 149 431 139 442 q 171 421 158 421 l 1128 421 q 1236 269 1236 421 l 1236 165 z "},"T":{"ha":1367,"x_min":0,"x_max":1236,"o":"m 686 1 l 546 1 l 544 472 l 544 519 l 0 519 l 0 672 l 1236 672 l 1236 519 l 686 519 l 686 1 z "},"U":{"ha":1364,"x_min":0,"x_max":1236,"o":"m 1094 203 l 1094 464 l 1094 675 l 1236 675 l 1236 533 l 1236 165 q 1131 1 1236 1 l 874 1 l 750 1 l 619 1 l 363 1 l 99 1 q 0 165 0 1 l 0 533 l 0 675 l 144 675 l 144 203 q 178 161 161 161 l 594 161 l 1050 161 l 1094 203 z "},"V":{"ha":1364,"x_min":0,"x_max":1236,"o":"m 1056 675 l 1236 675 l 661 3 l 514 3 l 0 675 l 181 675 l 589 158 l 1056 675 z "},"W":{"ha":1364,"x_min":0,"x_max":1236,"o":"m 686 157 l 1056 157 l 1094 203 l 1094 464 l 1094 675 l 1236 675 l 1236 533 l 1236 165 q 1131 1 1236 1 l 874 1 l 749 1 l 619 1 l 363 1 l 99 1 q 0 165 0 1 l 0 533 l 0 675 l 144 675 l 144 203 q 181 157 161 161 l 544 157 l 546 675 l 686 674 l 686 157 z "},"X":{"ha":1364,"x_min":0,"x_max":1238,"o":"m 0 675 l 147 675 l 249 419 l 339 419 l 467 419 l 989 419 l 1090 675 l 1238 675 l 1106 350 l 1238 1 l 1090 1 l 981 272 l 653 272 l 392 272 l 257 272 l 147 1 l 0 1 l 128 347 l 0 675 z "},"Y":{"ha":1367,"x_min":0,"x_max":1238,"o":"m 686 3 l 546 1 l 544 272 l 393 272 l 100 272 q 0 433 0 272 l 0 675 l 139 675 l 139 472 q 192 419 144 419 l 1064 419 q 1107 485 1097 436 l 1106 675 l 1238 675 l 1238 538 l 1238 425 q 1142 272 1238 272 l 890 272 l 686 272 l 686 3 z "},"Z":{"ha":1364,"x_min":0,"x_max":1236,"o":"m 0 269 q 108 419 0 417 l 1061 419 q 1106 478 1078 421 l 1106 517 l 0 517 l 0 675 l 1138 675 l 1236 675 l 1236 535 l 1236 421 q 1139 272 1236 275 l 181 272 q 142 213 142 269 l 142 167 l 1236 167 l 1236 1 l 108 1 l 0 1 l 0 165 l 0 269 z "},"[":{"ha":442,"x_min":0,"x_max":311,"o":"m 311 -119 l 106 -119 q 0 104 0 -122 l 0 618 q 107 813 0 813 l 311 814 l 311 633 l 169 633 q 144 514 147 551 l 144 175 l 164 67 l 311 67 l 311 -119 z "},"\\":{"ha":842,"x_min":0,"x_max":711,"o":"m 711 3 l 514 3 l 0 675 l 181 675 l 711 3 z "},"]":{"ha":442,"x_min":0,"x_max":311,"o":"m 0 67 l 147 67 l 167 175 l 167 514 q 142 633 164 551 l 0 633 l 0 814 l 204 813 q 311 618 311 813 l 311 104 q 206 -119 311 -122 l 0 -119 l 0 67 z "},"^":{"ha":790,"x_min":0,"x_max":0,"o":""},"_":{"ha":1365,"x_min":0,"x_max":1214,"o":"m 0 0 l 0 103 l 1214 103 l 1214 0 l 0 0 z "},"`":{"ha":269,"x_min":0,"x_max":139,"o":"m 139 558 l 139 517 l 106 375 l 69 375 l 69 517 l 36 517 q 0 553 1 515 l 1 635 q 39 675 0 675 l 104 675 q 139 633 139 675 l 139 557 l 139 558 z "},"a":{"ha":1364,"x_min":0,"x_max":1238,"o":"m 1238 1 l 1090 1 l 1090 192 l 1089 272 l 139 272 l 139 1 l 0 1 l 0 542 q 133 672 1 672 l 1119 672 q 1238 532 1238 672 l 1238 421 l 1238 203 l 1238 1 m 139 419 l 1089 419 l 1090 476 q 1058 513 1069 513 l 172 514 q 139 478 158 514 l 139 419 z "},"b":{"ha":1364,"x_min":1,"x_max":1238,"o":"m 139 417 l 1061 417 q 1079 433 1069 421 q 1090 476 1089 444 q 1056 519 1069 513 l 139 519 l 139 417 m 739 161 l 1053 161 q 1083 231 1078 192 q 1042 272 1061 272 l 139 272 l 139 161 l 739 161 m 1136 3 l 1117 1 l 619 1 l 1 1 l 1 672 l 1131 672 q 1238 532 1238 672 l 1238 421 q 1197 315 1238 344 q 1238 203 1238 257 l 1236 125 q 1136 3 1238 1 z "},"c":{"ha":1364,"x_min":0,"x_max":1236,"o":"m 1236 1 l 107 1 q 0 164 0 1 l 0 531 q 107 671 0 671 l 1236 671 l 1236 517 l 167 517 q 144 456 147 483 l 144 214 l 158 172 l 1236 172 l 1236 1 z "},"d":{"ha":1364,"x_min":0,"x_max":1236,"o":"m 142 169 l 1075 169 l 1092 214 l 1092 456 q 1069 519 1089 483 l 142 519 l 142 169 m 0 175 l 0 517 l 0 671 l 1129 671 q 1236 531 1236 671 l 1236 164 q 1129 1 1236 1 l 0 1 l 0 175 z "},"e":{"ha":1367,"x_min":1,"x_max":1236,"o":"m 1236 1 l 1 1 l 1 672 l 1236 672 l 1236 519 l 142 519 l 142 417 l 1236 417 l 1236 272 l 142 272 l 142 169 l 1236 169 l 1236 1 z "},"f":{"ha":1367,"x_min":1,"x_max":1236,"o":"m 142 1 l 1 1 l 1 672 l 1236 672 l 1236 519 l 142 519 l 142 417 l 1236 417 l 1236 272 l 142 272 l 142 1 z "},"g":{"ha":1364,"x_min":0,"x_max":1236,"o":"m 1094 203 l 1094 364 l 1236 364 l 1236 165 q 1131 1 1236 1 l 874 1 l 754 1 l 619 1 l 363 1 l 99 1 q 0 165 0 1 l 0 533 q 99 675 0 675 l 1131 675 l 1236 675 l 1236 522 l 182 522 q 144 464 144 521 l 144 333 l 144 203 q 178 164 164 164 l 594 164 l 1056 164 l 1094 203 z "},"h":{"ha":1364,"x_min":-1,"x_max":1239,"o":"m 1239 1 l 1097 1 l 1097 272 l 139 272 l 139 1 l -1 1 l -1 671 l 139 672 l 139 417 l 1097 417 l 1097 672 l 1239 671 l 1239 1 z "},"i":{"ha":269,"x_min":-1,"x_max":139,"o":"m 139 419 l 139 3 l -1 1 l -1 671 l 139 672 l 139 419 z "},"j":{"ha":1364,"x_min":0,"x_max":1236,"o":"m 0 169 l 1072 169 l 1092 214 l 1092 456 l 1092 672 l 1236 671 l 1236 531 l 1236 164 q 1129 1 1236 1 l 0 1 l 0 169 z "},"k":{"ha":1364,"x_min":0,"x_max":1238,"o":"m 1238 1 l 1090 1 l 986 272 l 653 272 l 393 272 l 139 272 l 139 1 l 0 1 l 0 675 l 139 675 l 139 419 l 989 419 l 1090 675 l 1238 675 l 1111 344 l 1238 1 z "},"l":{"ha":1367,"x_min":1,"x_max":1236,"o":"m 1236 1 l 1 1 l 1 672 l 142 672 l 143 418 l 142 167 l 1236 167 l 1236 1 z "},"m":{"ha":1364,"x_min":0,"x_max":1236,"o":"m 686 3 l 546 1 l 544 519 l 181 519 q 144 474 161 515 l 144 1 l 0 1 l 0 143 l 0 511 q 99 675 0 675 l 363 675 l 619 675 l 753 674 l 874 675 l 1131 675 q 1236 511 1236 675 l 1236 143 l 1236 1 l 1094 1 l 1094 213 l 1094 474 q 1056 519 1072 514 l 686 519 l 686 3 z "},"n":{"ha":1364,"x_min":0,"x_max":1236,"o":"m 1094 475 q 1056 519 1072 514 l 181 519 q 144 474 161 515 l 144 1 l 0 1 l 0 143 l 0 511 q 99 675 0 675 l 363 675 l 619 675 l 753 674 l 874 675 l 1131 675 q 1236 511 1236 675 l 1236 143 l 1236 1 l 1094 1 l 1094 213 l 1094 475 l 1094 475 z "},"o":{"ha":1364,"x_min":0,"x_max":1236,"o":"m 1094 203 l 1094 464 q 1079 504 1094 492 q 1044 522 1064 517 l 182 522 q 144 464 144 521 l 144 203 q 182 161 161 161 l 596 161 l 1057 161 q 1094 203 1075 164 m 750 1 l 619 1 l 363 1 l 110 1 q 0 165 0 1 l 0 533 q 111 675 0 675 l 1131 675 q 1236 533 1236 675 l 1236 165 q 1131 1 1236 1 l 874 1 l 750 1 z "},"p":{"ha":1367,"x_min":0,"x_max":1238,"o":"m 1064 519 l 1064 519 l 139 519 l 139 417 l 1067 417 q 1097 465 1097 436 q 1064 519 1097 494 m 653 272 l 393 272 l 139 272 l 139 1 l 0 1 l 0 675 l 1142 675 q 1238 538 1238 675 l 1238 425 q 1142 272 1238 272 l 890 272 l 653 272 z "},"q":{"ha":1367,"x_min":0,"x_max":1238,"o":"m 174 519 q 140 465 140 494 q 171 417 140 436 l 1099 417 l 1099 519 l 174 519 l 174 519 m 347 272 l 96 272 q 0 425 0 272 l 0 538 q 96 675 0 675 l 1238 675 l 1238 1 l 1099 1 l 1099 272 l 844 272 l 585 272 l 347 272 z "},"r":{"ha":1364,"x_min":0,"x_max":1238,"o":"m 1238 1 l 1090 1 l 981 272 l 653 272 l 393 272 l 139 272 l 139 1 l 0 1 l 0 675 l 1142 675 q 1238 538 1238 675 l 1238 425 q 1142 272 1238 272 l 1131 272 l 1238 1 m 1067 519 l 1064 519 l 139 519 l 139 419 l 1064 419 q 1099 467 1097 436 q 1067 519 1100 497 z "},"s":{"ha":1364,"x_min":0,"x_max":1236,"o":"m 1236 165 q 1128 1 1236 1 l 0 1 l 0 167 l 1053 167 q 1078 189 1068 175 q 1094 213 1089 203 q 1056 272 1094 269 l 97 272 q 0 421 0 275 l 0 535 q 99 675 0 675 l 1236 675 l 1236 517 l 171 517 q 149 502 158 517 q 139 465 139 488 q 149 431 139 442 q 171 421 158 421 l 1128 421 q 1236 269 1236 421 l 1236 165 z "},"t":{"ha":1367,"x_min":0,"x_max":1236,"o":"m 686 1 l 546 1 l 544 472 l 544 519 l 0 519 l 0 672 l 1236 672 l 1236 519 l 686 519 l 686 1 z "},"u":{"ha":1364,"x_min":0,"x_max":1236,"o":"m 1094 203 l 1094 464 l 1094 675 l 1236 675 l 1236 533 l 1236 165 q 1131 1 1236 1 l 874 1 l 753 1 l 619 1 l 363 1 l 99 1 q 0 165 0 1 l 0 533 l 0 675 l 144 675 l 144 203 q 178 161 161 161 l 594 161 l 1050 161 l 1094 203 z "},"v":{"ha":1364,"x_min":0,"x_max":1236,"o":"m 1056 675 l 1236 675 l 661 3 l 514 3 l 0 675 l 181 675 l 589 158 l 1056 675 z "},"w":{"ha":1364,"x_min":0,"x_max":1236,"o":"m 686 157 l 1056 157 l 1094 203 l 1094 464 l 1094 675 l 1236 675 l 1236 533 l 1236 165 q 1131 1 1236 1 l 874 1 l 754 1 l 619 1 l 363 1 l 99 1 q 0 165 0 1 l 0 533 l 0 675 l 144 675 l 144 203 q 181 157 161 161 l 544 157 l 546 675 l 686 674 l 686 157 z "},"x":{"ha":1364,"x_min":0,"x_max":1238,"o":"m 0 675 l 147 675 l 249 419 l 339 419 l 467 419 l 989 419 l 1090 675 l 1238 675 l 1106 350 l 1238 1 l 1090 1 l 981 272 l 653 272 l 392 272 l 257 272 l 147 1 l 0 1 l 128 347 l 0 675 z "},"y":{"ha":1367,"x_min":0,"x_max":1238,"o":"m 686 1 l 546 1 l 544 272 l 393 272 l 100 272 q 0 433 0 272 l 0 675 l 139 675 l 139 472 q 192 419 144 419 l 1064 419 q 1107 485 1097 436 l 1106 675 l 1238 675 l 1238 538 l 1238 425 q 1142 272 1238 272 l 890 272 l 686 272 l 686 1 z "},"z":{"ha":1364,"x_min":0,"x_max":1236,"o":"m 819 517 l 0 517 l 0 675 l 1138 675 l 1236 675 l 1236 522 l 406 167 l 1236 167 l 1236 1 l 108 1 l 0 1 l 0 161 l 819 517 z "},"{":{"ha":539,"x_min":0,"x_max":388,"o":"m 388 808 l 388 606 q 285 570 328 606 q 243 485 243 535 l 243 322 q 285 237 243 272 q 388 201 328 201 l 388 0 l 243 0 q 71 59 142 0 q 0 201 0 118 l 0 607 q 71 749 0 690 q 243 808 142 808 l 388 808 z "},"|":{"ha":517,"x_min":0,"x_max":0,"o":""},"}":{"ha":539,"x_min":0,"x_max":388,"o":"m 144 808 q 317 749 246 808 q 388 607 388 690 l 388 201 q 317 59 388 118 q 144 0 246 0 l 0 0 l 0 201 q 102 237 60 201 q 144 322 144 272 l 144 485 q 102 570 144 535 q 0 606 60 606 l 0 808 l 144 808 z "},"~":{"ha":790,"x_min":0,"x_max":0,"o":""}}}
